<svg xmlns="http://www.w3.org/2000/svg" width="220" height="22" viewBox="0 0 220 22">
  <metadata><?xpacket begin="﻿" id="W5M0MpCehiHzreSzNTczkc9d"?>
<x:xmpmeta xmlns:x="adobe:ns:meta/" x:xmptk="Adobe XMP Core 5.6-c142 79.160924, 2017/07/13-01:06:39        ">
   <rdf:RDF xmlns:rdf="http://www.w3.org/1999/02/22-rdf-syntax-ns#">
      <rdf:Description rdf:about=""/>
   </rdf:RDF>
</x:xmpmeta>
                                                                                                    
                                                                                                    
                                                                                                    
                                                                                                    
                                                                                                    
                                                                                                    
                                                                                                    
                                                                                                    
                                                                                                    
                                                                                                    
                                                                                                    
                                                                                                    
                                                                                                    
                                                                                                    
                                                                                                    
                                                                                                    
                                                                                                    
                                                                                                    
                                                                                                    
                                                                                                    
                           
<?xpacket end="w"?></metadata>
<defs>
    <style>
      .cls-1 {
        fill: #fff;
        fill-rule: evenodd;
      }
    </style>
  </defs>
  <path id="mail_domainjunction.com" data-name="mail@domainjunction.com" class="cls-1" d="M12.29,7.374a4.436,4.436,0,0,0-1.964.424A3.312,3.312,0,0,0,8.965,8.971a2.833,2.833,0,0,0-1.206-1.19,3.827,3.827,0,0,0-1.793-.407,4.15,4.15,0,0,0-1.744.35A3.033,3.033,0,0,0,2.983,8.743V7.455h-1.5v8.639H3.048v-4.45a2.98,2.98,0,0,1,.7-2.127A2.478,2.478,0,0,1,5.64,8.776a2.124,2.124,0,0,1,1.654.636A2.726,2.726,0,0,1,7.873,11.3v4.792H9.438v-4.45a2.98,2.98,0,0,1,.7-2.127,2.478,2.478,0,0,1,1.891-.742,2.123,2.123,0,0,1,1.654.636,2.726,2.726,0,0,1,.579,1.891v4.792h1.565V11.123a3.784,3.784,0,0,0-.954-2.8,3.509,3.509,0,0,0-2.583-.945h0Zm9.242,0a6.689,6.689,0,0,0-1.972.285,4.731,4.731,0,0,0-1.6.823l0.652,1.174a3.866,3.866,0,0,1,1.239-.676,4.576,4.576,0,0,1,1.5-.253,2.476,2.476,0,0,1,1.728.538,2,2,0,0,1,.587,1.548v0.31H21.19a4.1,4.1,0,0,0-2.641.693,2.269,2.269,0,0,0-.831,1.834,2.248,2.248,0,0,0,.872,1.842,3.6,3.6,0,0,0,2.323.7,4.262,4.262,0,0,0,1.72-.318,2.474,2.474,0,0,0,1.117-.921v1.141h1.483V10.878a3.4,3.4,0,0,0-.954-2.624,3.907,3.907,0,0,0-2.747-.88h0Zm-0.359,7.612a2.308,2.308,0,0,1-1.4-.375,1.209,1.209,0,0,1-.505-1.027q0-1.336,1.989-1.337h2.412v1.206a2.286,2.286,0,0,1-.945,1.133,2.906,2.906,0,0,1-1.549.4h0Zm6.634,1.108h1.565V7.455H27.808v8.639Zm0.782-10.3a1.028,1.028,0,0,0,.758-0.3,1.008,1.008,0,0,0,.3-0.742,0.937,0.937,0,0,0-.3-0.709,1.061,1.061,0,0,0-.758-0.285,1.028,1.028,0,0,0-.758.3,0.989,0.989,0,0,0-.3.725,0.961,0.961,0,0,0,.3.717,1.043,1.043,0,0,0,.758.293h0Zm3.439,10.3h1.565V4H32.029V16.094ZM43.243,4.57a8.3,8.3,0,0,0-4,.945A6.807,6.807,0,0,0,36.52,8.14a7.485,7.485,0,0,0-.97,3.814,7.623,7.623,0,0,0,.962,3.831,6.8,6.8,0,0,0,2.7,2.649,8.107,8.107,0,0,0,3.969.954,9.084,9.084,0,0,0,1.842-.2,6.364,6.364,0,0,0,1.663-.571l-0.359-1.043a5.968,5.968,0,0,1-1.516.538,7.721,7.721,0,0,1-1.63.179,6.84,6.84,0,0,1-3.366-.807,5.727,5.727,0,0,1-2.266-2.241,6.6,6.6,0,0,1-.807-3.293,6.513,6.513,0,0,1,.815-3.276,5.7,5.7,0,0,1,2.29-2.233,7.027,7.027,0,0,1,3.4-.8,7.234,7.234,0,0,1,3.382.766,5.6,5.6,0,0,1,2.29,2.143,6.14,6.14,0,0,1,.815,3.187,5.658,5.658,0,0,1-.4,2.372,1.232,1.232,0,0,1-1.117.839,0.865,0.865,0,0,1-.668-0.285,1.285,1.285,0,0,1-.261-0.888V7.912H45.868v1.32A3.226,3.226,0,0,0,44.6,8.2a4.069,4.069,0,0,0-1.711-.35,4.018,4.018,0,0,0-2.054.53A3.712,3.712,0,0,0,39.4,9.86,4.449,4.449,0,0,0,38.891,12a4.482,4.482,0,0,0,.513,2.16,3.768,3.768,0,0,0,1.426,1.491,4.257,4.257,0,0,0,3.871.139,3.258,3.258,0,0,0,1.28-1.149,1.84,1.84,0,0,0,.66,1.149,2.046,2.046,0,0,0,1.3.4A2.408,2.408,0,0,0,50.073,15a6.014,6.014,0,0,0,.766-3.276,7.13,7.13,0,0,0-.97-3.716,6.673,6.673,0,0,0-2.7-2.535,8.342,8.342,0,0,0-3.928-.9h0Zm-0.13,10.35a2.657,2.657,0,0,1-2-.8A2.914,2.914,0,0,1,40.342,12a2.9,2.9,0,0,1,.766-2.111,2.666,2.666,0,0,1,2-.791,2.877,2.877,0,0,1,1.426.35,2.545,2.545,0,0,1,.994,1.011A3.12,3.12,0,0,1,45.9,12a3.121,3.121,0,0,1-.367,1.54,2.6,2.6,0,0,1-.994,1.019,2.823,2.823,0,0,1-1.426.359h0ZM59.364,4v4.76a3.325,3.325,0,0,0-1.3-1.035,4.14,4.14,0,0,0-1.712-.35,4.542,4.542,0,0,0-2.249.554,3.987,3.987,0,0,0-1.557,1.549,4.589,4.589,0,0,0-.562,2.3,4.633,4.633,0,0,0,.562,2.307A3.969,3.969,0,0,0,54.1,15.638a4.539,4.539,0,0,0,2.249.554,4.09,4.09,0,0,0,1.76-.375,3.388,3.388,0,0,0,1.32-1.092v1.369h1.5V4H59.364ZM56.479,14.823a2.917,2.917,0,0,1-1.492-.383,2.757,2.757,0,0,1-1.043-1.076,3.229,3.229,0,0,1-.383-1.589,3.23,3.23,0,0,1,.383-1.589,2.7,2.7,0,0,1,1.043-1.068,3.138,3.138,0,0,1,2.975,0,2.636,2.636,0,0,1,1.043,1.068,3.288,3.288,0,0,1,.375,1.589,3.287,3.287,0,0,1-.375,1.589,2.687,2.687,0,0,1-1.043,1.076,2.93,2.93,0,0,1-1.483.383h0Zm10.791,1.369a4.638,4.638,0,0,0,2.306-.57,4.153,4.153,0,0,0,1.6-1.573,4.467,4.467,0,0,0,.579-2.274A4.467,4.467,0,0,0,71.173,9.5a4.1,4.1,0,0,0-1.6-1.565,5.028,5.028,0,0,0-4.621,0A4.079,4.079,0,0,0,63.349,9.5a4.465,4.465,0,0,0-.579,2.274,4.465,4.465,0,0,0,.579,2.274,4.134,4.134,0,0,0,1.606,1.573,4.682,4.682,0,0,0,2.315.57h0Zm0-1.369a2.916,2.916,0,0,1-1.492-.383,2.757,2.757,0,0,1-1.043-1.076,3.228,3.228,0,0,1-.383-1.589,3.229,3.229,0,0,1,.383-1.589,2.7,2.7,0,0,1,1.043-1.068,3.154,3.154,0,0,1,2.983,0A2.651,2.651,0,0,1,69.8,10.186a3.288,3.288,0,0,1,.375,1.589,3.287,3.287,0,0,1-.375,1.589,2.7,2.7,0,0,1-1.035,1.076,2.916,2.916,0,0,1-1.491.383h0ZM84.4,7.374a4.436,4.436,0,0,0-1.964.424,3.312,3.312,0,0,0-1.361,1.174,2.833,2.833,0,0,0-1.206-1.19,3.827,3.827,0,0,0-1.793-.407,4.149,4.149,0,0,0-1.744.35,3.032,3.032,0,0,0-1.239,1.019V7.455h-1.5v8.639h1.565v-4.45a2.98,2.98,0,0,1,.7-2.127,2.477,2.477,0,0,1,1.891-.742,2.123,2.123,0,0,1,1.654.636,2.726,2.726,0,0,1,.579,1.891v4.792h1.565v-4.45a2.98,2.98,0,0,1,.7-2.127,2.478,2.478,0,0,1,1.891-.742,2.124,2.124,0,0,1,1.654.636,2.726,2.726,0,0,1,.579,1.891v4.792h1.565V11.123a3.784,3.784,0,0,0-.954-2.8A3.509,3.509,0,0,0,84.4,7.374h0Zm9.242,0a6.69,6.69,0,0,0-1.972.285,4.732,4.732,0,0,0-1.6.823l0.652,1.174a3.866,3.866,0,0,1,1.239-.676,4.576,4.576,0,0,1,1.5-.253,2.475,2.475,0,0,1,1.728.538,2,2,0,0,1,.587,1.548v0.31H93.3a4.1,4.1,0,0,0-2.641.693,2.269,2.269,0,0,0-.831,1.834,2.248,2.248,0,0,0,.872,1.842,3.6,3.6,0,0,0,2.323.7,4.263,4.263,0,0,0,1.72-.318,2.473,2.473,0,0,0,1.117-.921v1.141h1.483V10.878a3.4,3.4,0,0,0-.954-2.624,3.907,3.907,0,0,0-2.747-.88h0Zm-0.359,7.612a2.309,2.309,0,0,1-1.4-.375,1.209,1.209,0,0,1-.505-1.027q0-1.336,1.989-1.337h2.412v1.206a2.286,2.286,0,0,1-.945,1.133,2.906,2.906,0,0,1-1.549.4h0Zm6.634,1.108h1.565V7.455H99.918v8.639Zm0.782-10.3a1.028,1.028,0,0,0,.758-0.3,1.008,1.008,0,0,0,.3-0.742,0.937,0.937,0,0,0-.3-0.709,1.061,1.061,0,0,0-.758-0.285,1.027,1.027,0,0,0-.758.3,0.989,0.989,0,0,0-.3.725,0.961,0.961,0,0,0,.3.717,1.042,1.042,0,0,0,.758.293h0Zm8.052,1.581a4.469,4.469,0,0,0-1.833.359,3.043,3.043,0,0,0-1.28,1.027v-1.3h-1.5v8.639H105.7v-4.45a2.9,2.9,0,0,1,.734-2.127,2.692,2.692,0,0,1,2-.742,2.267,2.267,0,0,1,1.727.636,2.653,2.653,0,0,1,.6,1.891v4.792h1.564V11.123a3.749,3.749,0,0,0-.97-2.8,3.567,3.567,0,0,0-2.616-.954h0Zm5.053,11.98a2.655,2.655,0,0,0,2.038-.766,2.956,2.956,0,0,0,.717-2.1V7.455H115v9.063a1.678,1.678,0,0,1-.334,1.133,1.2,1.2,0,0,1-.953.383,1.922,1.922,0,0,1-1.272-.407l-0.505,1.206a2.193,2.193,0,0,0,.815.391,4.1,4.1,0,0,0,1.059.13h0Zm1.973-13.562a1.029,1.029,0,0,0,.758-0.3,1.008,1.008,0,0,0,.3-0.742,0.936,0.936,0,0,0-.3-0.709,1.062,1.062,0,0,0-.758-0.285,1.027,1.027,0,0,0-.758.3,0.986,0.986,0,0,0-.3.725,0.959,0.959,0,0,0,.3.717,1.042,1.042,0,0,0,.758.293h0ZM125.7,7.455v4.466a2.943,2.943,0,0,1-.717,2.119,2.578,2.578,0,0,1-1.956.75,2.252,2.252,0,0,1-1.728-.644,2.683,2.683,0,0,1-.6-1.9V7.455h-1.565v4.971a3.719,3.719,0,0,0,.995,2.812,3.768,3.768,0,0,0,2.722.954,3.891,3.891,0,0,0,1.687-.367,3.151,3.151,0,0,0,1.247-1.035v1.3h1.483V7.455H125.7Zm8.835-.082a4.474,4.474,0,0,0-1.834.359,3.043,3.043,0,0,0-1.28,1.027v-1.3h-1.5v8.639h1.565v-4.45a2.9,2.9,0,0,1,.733-2.127,2.692,2.692,0,0,1,2.005-.742,2.268,2.268,0,0,1,1.728.636,2.652,2.652,0,0,1,.6,1.891v4.792h1.565V11.123a3.753,3.753,0,0,0-.97-2.8,3.571,3.571,0,0,0-2.616-.954h0Zm9.975,8.818a4.461,4.461,0,0,0,2.095-.481,3.422,3.422,0,0,0,1.426-1.377l-1.19-.75a2.66,2.66,0,0,1-1.011.929,2.878,2.878,0,0,1-1.336.31,3.089,3.089,0,0,1-1.524-.375,2.668,2.668,0,0,1-1.06-1.068,3.268,3.268,0,0,1-.383-1.606,3.234,3.234,0,0,1,.383-1.589,2.672,2.672,0,0,1,1.06-1.068,3.091,3.091,0,0,1,1.524-.375,2.882,2.882,0,0,1,1.336.31,2.664,2.664,0,0,1,1.011.929l1.19-.766a3.375,3.375,0,0,0-1.426-1.369,4.525,4.525,0,0,0-2.095-.473,4.853,4.853,0,0,0-2.355.562A4.122,4.122,0,0,0,140.537,9.5a4.419,4.419,0,0,0-.587,2.274,4.419,4.419,0,0,0,.587,2.274,4.178,4.178,0,0,0,1.622,1.573,4.8,4.8,0,0,0,2.355.57h0Zm9.7-1.728a1.884,1.884,0,0,1-1.222.408,1.306,1.306,0,0,1-1-.375,1.52,1.52,0,0,1-.35-1.076V8.743h2.478V7.455h-2.478V5.565h-1.565V7.455H148.6V8.743h1.467v4.743a2.677,2.677,0,0,0,.717,2,2.771,2.771,0,0,0,2.022.7,3.547,3.547,0,0,0,1.043-.155,2.337,2.337,0,0,0,.847-0.448Zm2.054,1.63h1.565V7.455h-1.565v8.639Zm0.782-10.3a1.028,1.028,0,0,0,.758-0.3,1.008,1.008,0,0,0,.3-0.742,0.937,0.937,0,0,0-.3-0.709,1.061,1.061,0,0,0-.758-0.285,1.029,1.029,0,0,0-.758.3,0.989,0.989,0,0,0-.3.725,0.962,0.962,0,0,0,.3.717,1.044,1.044,0,0,0,.758.293h0Zm7.14,10.4a4.636,4.636,0,0,0,2.306-.57,4.147,4.147,0,0,0,1.6-1.573,4.463,4.463,0,0,0,.579-2.274,4.463,4.463,0,0,0-.579-2.274,4.09,4.09,0,0,0-1.6-1.565,4.691,4.691,0,0,0-2.306-.562,4.74,4.74,0,0,0-2.315.562A4.08,4.08,0,0,0,160.267,9.5a4.472,4.472,0,0,0-.578,2.274,4.473,4.473,0,0,0,.578,2.274,4.136,4.136,0,0,0,1.606,1.573,4.684,4.684,0,0,0,2.315.57h0Zm0-1.369a2.916,2.916,0,0,1-1.492-.383,2.756,2.756,0,0,1-1.043-1.076,3.223,3.223,0,0,1-.383-1.589,3.223,3.223,0,0,1,.383-1.589A2.7,2.7,0,0,1,162.7,9.118a3.154,3.154,0,0,1,2.983,0,2.65,2.65,0,0,1,1.035,1.068,3.286,3.286,0,0,1,.375,1.589,3.285,3.285,0,0,1-.375,1.589,2.7,2.7,0,0,1-1.035,1.076,2.915,2.915,0,0,1-1.491.383h0Zm10.937-7.449a4.474,4.474,0,0,0-1.834.359,3.049,3.049,0,0,0-1.28,1.027v-1.3h-1.5v8.639h1.565v-4.45a2.9,2.9,0,0,1,.733-2.127,2.692,2.692,0,0,1,2-.742,2.268,2.268,0,0,1,1.728.636,2.652,2.652,0,0,1,.6,1.891v4.792h1.565V11.123a3.753,3.753,0,0,0-.97-2.8,3.571,3.571,0,0,0-2.616-.954h0Zm6.536,8.818a1.036,1.036,0,0,0,.758-0.318,1.183,1.183,0,0,0,.008-1.606,1.041,1.041,0,0,0-.766-0.31,1.08,1.08,0,0,0-.782.318,1.057,1.057,0,0,0-.326.791,1.1,1.1,0,0,0,1.108,1.125h0Zm6.569,0a4.457,4.457,0,0,0,2.094-.481,3.419,3.419,0,0,0,1.427-1.377l-1.19-.75a2.66,2.66,0,0,1-1.011.929,2.878,2.878,0,0,1-1.336.31,3.083,3.083,0,0,1-1.524-.375,2.668,2.668,0,0,1-1.06-1.068,3.268,3.268,0,0,1-.383-1.606,3.234,3.234,0,0,1,.383-1.589,2.672,2.672,0,0,1,1.06-1.068,3.086,3.086,0,0,1,1.524-.375,2.882,2.882,0,0,1,1.336.31,2.664,2.664,0,0,1,1.011.929l1.19-.766a3.371,3.371,0,0,0-1.427-1.369,4.521,4.521,0,0,0-2.094-.473,4.853,4.853,0,0,0-2.355.562A4.115,4.115,0,0,0,184.253,9.5a4.419,4.419,0,0,0-.587,2.274,4.419,4.419,0,0,0,.587,2.274,4.172,4.172,0,0,0,1.622,1.573,4.8,4.8,0,0,0,2.355.57h0Zm8.786,0a4.636,4.636,0,0,0,2.306-.57,4.156,4.156,0,0,0,1.6-1.573,4.473,4.473,0,0,0,.578-2.274A4.472,4.472,0,0,0,200.92,9.5a4.1,4.1,0,0,0-1.6-1.565,4.691,4.691,0,0,0-2.306-.562,4.74,4.74,0,0,0-2.315.562A4.071,4.071,0,0,0,193.1,9.5a4.463,4.463,0,0,0-.579,2.274,4.463,4.463,0,0,0,.579,2.274,4.127,4.127,0,0,0,1.6,1.573,4.684,4.684,0,0,0,2.315.57h0Zm0-1.369a2.916,2.916,0,0,1-1.492-.383,2.756,2.756,0,0,1-1.043-1.076,3.233,3.233,0,0,1-.383-1.589,3.234,3.234,0,0,1,.383-1.589,2.7,2.7,0,0,1,1.043-1.068,3.154,3.154,0,0,1,2.983,0,2.65,2.65,0,0,1,1.035,1.068,3.286,3.286,0,0,1,.375,1.589,3.285,3.285,0,0,1-.375,1.589,2.7,2.7,0,0,1-1.035,1.076,2.915,2.915,0,0,1-1.491.383h0Zm17.131-7.449a4.435,4.435,0,0,0-1.964.424,3.308,3.308,0,0,0-1.361,1.174,2.835,2.835,0,0,0-1.207-1.19,3.825,3.825,0,0,0-1.793-.407,4.15,4.15,0,0,0-1.744.35,3.029,3.029,0,0,0-1.238,1.019V7.455h-1.5v8.639h1.565v-4.45a2.977,2.977,0,0,1,.7-2.127,2.476,2.476,0,0,1,1.89-.742,2.124,2.124,0,0,1,1.655.636,2.724,2.724,0,0,1,.579,1.891v4.792h1.564v-4.45a2.982,2.982,0,0,1,.7-2.127,2.478,2.478,0,0,1,1.891-.742,2.125,2.125,0,0,1,1.655.636,2.729,2.729,0,0,1,.578,1.891v4.792h1.565V11.123a3.783,3.783,0,0,0-.954-2.8,3.507,3.507,0,0,0-2.583-.945h0Z"/>
</svg>
