<svg xmlns="http://www.w3.org/2000/svg" width="344" height="22" viewBox="0 0 344 22">
  <metadata><?xpacket begin="﻿" id="W5M0MpCehiHzreSzNTczkc9d"?>
<x:xmpmeta xmlns:x="adobe:ns:meta/" x:xmptk="Adobe XMP Core 5.6-c142 79.160924, 2017/07/13-01:06:39        ">
   <rdf:RDF xmlns:rdf="http://www.w3.org/1999/02/22-rdf-syntax-ns#">
      <rdf:Description rdf:about=""/>
   </rdf:RDF>
</x:xmpmeta>
                                                                                                    
                                                                                                    
                                                                                                    
                                                                                                    
                                                                                                    
                                                                                                    
                                                                                                    
                                                                                                    
                                                                                                    
                                                                                                    
                                                                                                    
                                                                                                    
                                                                                                    
                                                                                                    
                                                                                                    
                                                                                                    
                                                                                                    
                                                                                                    
                                                                                                    
                                                                                                    
                           
<?xpacket end="w"?></metadata>
<defs>
    <style>
      .cls-1 {
        fill: #fff;
        fill-rule: evenodd;
      }
    </style>
  </defs>
  <path id="_9759384633_mail_domainjunction.com" data-name="9759384633     mail@domainjunction.com" class="cls-1" d="M5.1,14.752a4.987,4.987,0,0,1-1.138-.4L3.7,15.671a6.269,6.269,0,0,0,1.323.413,7.094,7.094,0,0,0,1.384.141A4.473,4.473,0,0,0,9.664,14.99a4.586,4.586,0,0,0,1.266-3.441V7.664a4.7,4.7,0,0,0-1.16-3.4,4.075,4.075,0,0,0-3.076-1.2,3.583,3.583,0,0,0-2.76,1.226,4.512,4.512,0,0,0-1.116,3.16,4.482,4.482,0,0,0,1.05,3.16,3.745,3.745,0,0,0,2.9,1.138,2.98,2.98,0,0,0,1.375-.321,2.789,2.789,0,0,0,1.05-.945v1.09A3.547,3.547,0,0,1,8.42,14.01a2.575,2.575,0,0,1-2.017.861A6.336,6.336,0,0,1,5.1,14.752ZM5.129,9.576a3.59,3.59,0,0,1-.58-2.131A3.55,3.55,0,0,1,5.177,5.26a1.893,1.893,0,0,1,1.569-.839,2.206,2.206,0,0,1,1.8.778,3.387,3.387,0,0,1,.642,2.21V8.921a2.421,2.421,0,0,1-.9,1.055,2.688,2.688,0,0,1-1.525.413A1.891,1.891,0,0,1,5.129,9.576ZM21.477,3.243h-8.49V4.605h6.785a22.891,22.891,0,0,0-3.089,4.812,12.376,12.376,0,0,0-1.068,5.225v1.4h1.731v-1.4A13.634,13.634,0,0,1,18.2,9.694a19.023,19.023,0,0,1,3.278-5.089V3.243Zm3.762,7.26a1.8,1.8,0,0,1,.677-0.949,2.718,2.718,0,0,1,1.477-.308,2.065,2.065,0,0,1,1.7.756,3.049,3.049,0,0,1,.611,1.978A3.348,3.348,0,0,1,29.1,14.1a2.042,2.042,0,0,1-1.705.773,2.164,2.164,0,0,1-1.56-.576,2.137,2.137,0,0,1-.6-1.622H23.665l-0.017.053a3.072,3.072,0,0,0,1.037,2.61,4.124,4.124,0,0,0,2.707.888,3.8,3.8,0,0,0,3.01-1.169,4.5,4.5,0,0,0,1.033-3.094,4.491,4.491,0,0,0-1.006-3.1,3.485,3.485,0,0,0-2.782-1.112,3.216,3.216,0,0,0-1.143.207,3.952,3.952,0,0,0-.914.505L26,4.781h4.948V3.243H24.544l-0.738,7.11ZM35.5,14.752a4.986,4.986,0,0,1-1.138-.4L34.1,15.671a6.268,6.268,0,0,0,1.323.413,7.094,7.094,0,0,0,1.384.141,4.473,4.473,0,0,0,3.261-1.235,4.586,4.586,0,0,0,1.266-3.441V7.664a4.7,4.7,0,0,0-1.16-3.4,4.075,4.075,0,0,0-3.076-1.2,3.583,3.583,0,0,0-2.76,1.226,4.512,4.512,0,0,0-1.116,3.16,4.483,4.483,0,0,0,1.05,3.16,3.745,3.745,0,0,0,2.9,1.138,2.98,2.98,0,0,0,1.376-.321,2.788,2.788,0,0,0,1.05-.945v1.09a3.547,3.547,0,0,1-.769,2.443,2.575,2.575,0,0,1-2.017.861A6.336,6.336,0,0,1,35.5,14.752ZM35.53,9.576a3.59,3.59,0,0,1-.58-2.131,3.55,3.55,0,0,1,.628-2.184,1.893,1.893,0,0,1,1.569-.839,2.205,2.205,0,0,1,1.8.778,3.387,3.387,0,0,1,.642,2.21V8.921a2.421,2.421,0,0,1-.9,1.055,2.688,2.688,0,0,1-1.525.413A1.891,1.891,0,0,1,35.53,9.576ZM46.2,8.763v1.345h1.424a2.3,2.3,0,0,1,1.753.6,2.558,2.558,0,0,1,.558,1.8,2.416,2.416,0,0,1-.606,1.71,2.153,2.153,0,0,1-1.661.655,2.42,2.42,0,0,1-1.736-.637,2.076,2.076,0,0,1-.672-1.569H43.607l-0.018.053a2.948,2.948,0,0,0,1.2,2.544,4.571,4.571,0,0,0,2.878.962,4.159,4.159,0,0,0,2.887-1,3.513,3.513,0,0,0,1.112-2.755,3.447,3.447,0,0,0-.505-1.9A3.026,3.026,0,0,0,49.69,9.4,3.169,3.169,0,0,0,51,8.244a2.982,2.982,0,0,0,.47-1.635,3.366,3.366,0,0,0-1.011-2.65,4.053,4.053,0,0,0-2.795-.9,4.173,4.173,0,0,0-2.9,1.02,3.058,3.058,0,0,0-1.09,2.461L43.7,6.592h1.652a2.047,2.047,0,0,1,.655-1.551,2.314,2.314,0,0,1,1.657-.62,1.959,1.959,0,0,1,1.551.593,2.273,2.273,0,0,1,.523,1.56,2.452,2.452,0,0,1-.479,1.613,2.029,2.029,0,0,1-1.639.576H46.2ZM60.5,3.951a4,4,0,0,0-2.685-.892A4.271,4.271,0,0,0,55,3.946a3.136,3.136,0,0,0-1.077,2.566A2.852,2.852,0,0,0,54.5,8.275,3.371,3.371,0,0,0,56.053,9.4a3.878,3.878,0,0,0-1.815,1.213,2.935,2.935,0,0,0-.672,1.907,3.321,3.321,0,0,0,1.191,2.733,4.718,4.718,0,0,0,3.072.967,4.378,4.378,0,0,0,2.922-.967A3.378,3.378,0,0,0,61.9,12.524a2.972,2.972,0,0,0-.659-1.907,3.753,3.753,0,0,0-1.749-1.2,3.406,3.406,0,0,0,1.494-1.138,2.884,2.884,0,0,0,.563-1.762A3.176,3.176,0,0,0,60.5,3.951ZM59.5,14.216a2.3,2.3,0,0,1-1.674.655A2.589,2.589,0,0,1,56,14.221a2.239,2.239,0,0,1-.707-1.732,2.274,2.274,0,0,1,.712-1.723,2.51,2.51,0,0,1,1.8-.677,2.294,2.294,0,0,1,1.683.677,2.326,2.326,0,0,1,.681,1.723A2.3,2.3,0,0,1,59.5,14.216Zm-0.255-6.1a1.862,1.862,0,0,1-1.419.606,2.092,2.092,0,0,1-2.171-2.188A2.027,2.027,0,0,1,56.264,5a2.156,2.156,0,0,1,1.547-.576,1.9,1.9,0,0,1,1.428.6,2.1,2.1,0,0,1,.576,1.521A2.224,2.224,0,0,1,59.248,8.121Zm11.4-4.878H68.823l-5.388,8.868v0.976h5.493V16.04h1.723V13.087h1.767V11.733H70.651V3.243ZM68.709,6.161l0.167-.439L68.929,5.73v6H65.29Zm6.71-1.635a5.455,5.455,0,0,0-1.279,3.718v2.944a5.362,5.362,0,0,0,1.2,3.687,3.808,3.808,0,0,0,2.971,1.349,3.749,3.749,0,0,0,2.9-1.173,4.467,4.467,0,0,0,1.077-3.142A4.277,4.277,0,0,0,81.326,9a3.286,3.286,0,0,0-2.615-1.107,4.04,4.04,0,0,0-1.578.308,3.916,3.916,0,0,0-1.27.844V8.051a4.3,4.3,0,0,1,.751-2.6A2.317,2.317,0,0,1,78.57,4.421a5.449,5.449,0,0,1,1.292.136,6.486,6.486,0,0,1,1.055.356l0.369-1.327a5.406,5.406,0,0,0-1.222-.378,7.518,7.518,0,0,0-1.494-.149A4.019,4.019,0,0,0,75.419,4.526Zm4.509,5.4a2.963,2.963,0,0,1,.628,1.986,3.612,3.612,0,0,1-.584,2.14,1.922,1.922,0,0,1-1.666.822,2.105,2.105,0,0,1-1.736-.945,4.2,4.2,0,0,1-.708-2.571V10.468a2.322,2.322,0,0,1,.892-0.936,2.7,2.7,0,0,1,1.4-.347A2.2,2.2,0,0,1,79.928,9.923Zm6.807-1.16v1.345h1.424a2.3,2.3,0,0,1,1.753.6,2.558,2.558,0,0,1,.558,1.8,2.416,2.416,0,0,1-.606,1.71,2.153,2.153,0,0,1-1.661.655,2.42,2.42,0,0,1-1.736-.637,2.076,2.076,0,0,1-.672-1.569H84.143l-0.018.053a2.947,2.947,0,0,0,1.2,2.544,4.572,4.572,0,0,0,2.878.962,4.159,4.159,0,0,0,2.887-1A3.512,3.512,0,0,0,92.2,12.472a3.448,3.448,0,0,0-.505-1.9A3.026,3.026,0,0,0,90.225,9.4a3.17,3.17,0,0,0,1.314-1.151,2.982,2.982,0,0,0,.47-1.635A3.365,3.365,0,0,0,91,3.959a4.053,4.053,0,0,0-2.795-.9,4.174,4.174,0,0,0-2.9,1.02,3.058,3.058,0,0,0-1.09,2.461l0.026,0.053h1.652a2.047,2.047,0,0,1,.655-1.551,2.314,2.314,0,0,1,1.657-.62,1.959,1.959,0,0,1,1.551.593,2.273,2.273,0,0,1,.523,1.56A2.452,2.452,0,0,1,89.8,8.187a2.029,2.029,0,0,1-1.639.576H86.735Zm10.134,0v1.345h1.424a2.3,2.3,0,0,1,1.753.6,2.558,2.558,0,0,1,.558,1.8,2.417,2.417,0,0,1-.606,1.71,2.153,2.153,0,0,1-1.661.655,2.42,2.42,0,0,1-1.736-.637,2.076,2.076,0,0,1-.672-1.569H94.276l-0.018.053a2.947,2.947,0,0,0,1.2,2.544,4.572,4.572,0,0,0,2.878.962,4.159,4.159,0,0,0,2.887-1,3.513,3.513,0,0,0,1.112-2.755,3.454,3.454,0,0,0-.5-1.9A3.026,3.026,0,0,0,100.358,9.4a3.164,3.164,0,0,0,1.314-1.151,2.977,2.977,0,0,0,.471-1.635,3.365,3.365,0,0,0-1.011-2.65,4.054,4.054,0,0,0-2.8-.9,4.174,4.174,0,0,0-2.9,1.02,3.058,3.058,0,0,0-1.09,2.461l0.026,0.053h1.652A2.047,2.047,0,0,1,96.68,5.04a2.314,2.314,0,0,1,1.657-.62,1.959,1.959,0,0,1,1.551.593,2.272,2.272,0,0,1,.523,1.56,2.454,2.454,0,0,1-.479,1.613,2.029,2.029,0,0,1-1.639.576H96.869ZM126.963,6.53v9.51h1.731V9a2.1,2.1,0,0,1,.783-0.914,2.376,2.376,0,0,1,1.3-.325,1.726,1.726,0,0,1,1.429.62,3.119,3.119,0,0,1,.5,1.956v5.7h1.74V9.932a2.683,2.683,0,0,1,.646-1.556,1.836,1.836,0,0,1,1.437-.615,1.764,1.764,0,0,1,1.442.584,3.163,3.163,0,0,1,.483,1.991v5.7h1.732V10.354a4.56,4.56,0,0,0-.844-3,2.848,2.848,0,0,0-2.294-1,3.115,3.115,0,0,0-1.718.47,3.546,3.546,0,0,0-1.191,1.288,2.662,2.662,0,0,0-1.024-1.318,2.944,2.944,0,0,0-1.631-.439,3.551,3.551,0,0,0-1.665.374,3.223,3.223,0,0,0-1.182,1.05L128.51,6.53h-1.547Zm23.361,9.51a5.026,5.026,0,0,1-.193-0.932,8.951,8.951,0,0,1-.053-0.984V9.545a2.912,2.912,0,0,0-.984-2.369,3.93,3.93,0,0,0-2.6-.822,4.023,4.023,0,0,0-2.667.861,2.272,2.272,0,0,0-.971,1.9l0.017,0.053,1.644-.018a1.264,1.264,0,0,1,.518-1.011,2.093,2.093,0,0,1,1.363-.422,2,2,0,0,1,1.441.488,1.744,1.744,0,0,1,.51,1.323v0.94h-1.881a5.151,5.151,0,0,0-2.993.769,2.457,2.457,0,0,0-1.1,2.131,2.794,2.794,0,0,0,.778,2.1,3.109,3.109,0,0,0,2.263.76,3.221,3.221,0,0,0,1.674-.461,4.043,4.043,0,0,0,1.262-1.147,5.448,5.448,0,0,0,.057.664q0.048,0.33.136,0.76h1.784ZM144.5,14.405a1.3,1.3,0,0,1-.4-1,1.577,1.577,0,0,1,.628-1.239,2.52,2.52,0,0,1,1.674-.527h1.943v1.547a2.3,2.3,0,0,1-.985,1.108,3.081,3.081,0,0,1-1.7.483A1.656,1.656,0,0,1,144.5,14.405Zm9.967-7.875h-1.732v9.51h1.732V6.53Zm0-4.2h-1.732V4.1h1.732V2.329Zm4.535,0h-1.731V16.04H159V2.329ZM174,5.66a6.2,6.2,0,0,0-5.111-2.2A6.669,6.669,0,0,0,163.6,5.792a9.579,9.579,0,0,0-2.189,6.047,8.5,8.5,0,0,0,1.666,5.99,6.341,6.341,0,0,0,5.163,2.193,8.029,8.029,0,0,0,1.78-.206,4.837,4.837,0,0,0,1.5-.576l-0.334-.94a5.166,5.166,0,0,1-1.341.5,6.772,6.772,0,0,1-1.569.189,5.026,5.026,0,0,1-4.236-1.92,7.733,7.733,0,0,1-1.318-5.225,8.715,8.715,0,0,1,1.78-5.291,5.33,5.33,0,0,1,4.355-2.03,5.094,5.094,0,0,1,4.359,1.876,8,8,0,0,1,1.266,5.234,5,5,0,0,1-.721,2.536,1.984,1.984,0,0,1-1.732,1,0.846,0.846,0,0,1-.716-0.365,2.078,2.078,0,0,1-.189-1.332l0.448-5.142h-0.052l0.035-.035a6.027,6.027,0,0,0-1.222-.7,4.013,4.013,0,0,0-1.485-.229,2.969,2.969,0,0,0-2.457,1.375,7.151,7.151,0,0,0-1.208,3.652,4.68,4.68,0,0,0,.448,2.782,1.881,1.881,0,0,0,1.7,1.059,3.023,3.023,0,0,0,1.477-.347,2.942,2.942,0,0,0,1.072-1.05,2,2,0,0,0,.668,1.033,1.74,1.74,0,0,0,1.107.365,3.358,3.358,0,0,0,2.918-1.358,5.838,5.838,0,0,0,1.055-3.239A8.647,8.647,0,0,0,174,5.66Zm-6.509,3.81a1.85,1.85,0,0,1,1.679-.962,2.188,2.188,0,0,1,.523.062,2.667,2.667,0,0,1,.479.167l-0.413,4.729c-0.012.094-.019,0.18-0.022,0.259a1.829,1.829,0,0,0,0,.224,2.2,2.2,0,0,1-.852.769,2.423,2.423,0,0,1-1.029.215,0.968,0.968,0,0,1-.936-0.65,4.121,4.121,0,0,1-.189-1.9A7.046,7.046,0,0,1,167.489,9.47Zm9.888,2.175a5.242,5.242,0,0,0,.984,3.318,3.264,3.264,0,0,0,2.725,1.261,3.443,3.443,0,0,0,1.591-.352,3.088,3.088,0,0,0,1.151-1.037l0.264,1.2h1.327V2.329h-1.731V7.559a3.04,3.04,0,0,0-1.1-.9,3.4,3.4,0,0,0-1.48-.308,3.158,3.158,0,0,0-2.747,1.406,6.349,6.349,0,0,0-.98,3.7v0.185Zm1.731-.185a5.3,5.3,0,0,1,.594-2.672,1.978,1.978,0,0,1,1.841-1.028,2.29,2.29,0,0,1,1.279.347,2.676,2.676,0,0,1,.866.936v4.438a2.625,2.625,0,0,1-.862.984,2.292,2.292,0,0,1-1.3.352,2.057,2.057,0,0,1-1.828-.866,4.041,4.041,0,0,1-.589-2.307V11.461Zm8.491-.07a5.2,5.2,0,0,0,1.147,3.476,4.253,4.253,0,0,0,6.227,0,5.213,5.213,0,0,0,1.142-3.48V11.2a5.217,5.217,0,0,0-1.147-3.48,4.234,4.234,0,0,0-6.227,0A5.234,5.234,0,0,0,187.6,11.2v0.193Zm1.731-.193a4.519,4.519,0,0,1,.637-2.487,2.09,2.09,0,0,1,1.877-.993,2.118,2.118,0,0,1,1.894.993,4.479,4.479,0,0,1,.646,2.487v0.193a4.485,4.485,0,0,1-.642,2.5,2.3,2.3,0,0,1-3.775,0,4.509,4.509,0,0,1-.637-2.5V11.2Zm8.9-4.667v9.51h1.732V9a2.1,2.1,0,0,1,.782-0.914,2.382,2.382,0,0,1,1.3-.325,1.723,1.723,0,0,1,1.428.62,3.119,3.119,0,0,1,.5,1.956v5.7h1.74V9.932a2.677,2.677,0,0,1,.646-1.556,1.835,1.835,0,0,1,1.437-.615,1.762,1.762,0,0,1,1.441.584,3.163,3.163,0,0,1,.484,1.991v5.7h1.731V10.354a4.555,4.555,0,0,0-.844-3,2.847,2.847,0,0,0-2.294-1,3.115,3.115,0,0,0-1.718.47,3.563,3.563,0,0,0-1.191,1.288,2.657,2.657,0,0,0-1.024-1.318,2.941,2.941,0,0,0-1.63-.439,3.555,3.555,0,0,0-1.666.374,3.239,3.239,0,0,0-1.182,1.05L199.78,6.53h-1.547ZM221.6,16.04a5.111,5.111,0,0,1-.194-0.932,8.956,8.956,0,0,1-.052-0.984V9.545a2.913,2.913,0,0,0-.985-2.369,3.925,3.925,0,0,0-2.6-.822,4.027,4.027,0,0,0-2.668.861,2.278,2.278,0,0,0-.971,1.9l0.018,0.053,1.643-.018a1.266,1.266,0,0,1,.519-1.011,2.09,2.09,0,0,1,1.362-.422,2,2,0,0,1,1.441.488,1.744,1.744,0,0,1,.51,1.323v0.94h-1.881a5.148,5.148,0,0,0-2.992.769,2.455,2.455,0,0,0-1.1,2.131,2.8,2.8,0,0,0,.777,2.1,3.11,3.11,0,0,0,2.264.76,3.226,3.226,0,0,0,1.674-.461,4.028,4.028,0,0,0,1.261-1.147,5.655,5.655,0,0,0,.057.664q0.048,0.33.137,0.76H221.6Zm-5.827-1.635a1.3,1.3,0,0,1-.4-1A1.577,1.577,0,0,1,216,12.164a2.521,2.521,0,0,1,1.675-.527h1.942v1.547a2.294,2.294,0,0,1-.984,1.108,3.083,3.083,0,0,1-1.7.483A1.654,1.654,0,0,1,215.768,14.405Zm9.966-7.875H224v9.51h1.731V6.53Zm0-4.2H224V4.1h1.731V2.329Zm2.663,4.2v9.51h1.732V8.982a2.333,2.333,0,0,1,.883-0.9,2.685,2.685,0,0,1,1.358-.321,1.989,1.989,0,0,1,1.516.527,2.573,2.573,0,0,1,.5,1.784V16.04h1.731v-6a3.957,3.957,0,0,0-.843-2.782,3.106,3.106,0,0,0-2.382-.9,3.18,3.18,0,0,0-1.631.417,3.464,3.464,0,0,0-1.191,1.173L229.944,6.53H228.4Zm10.5,0V16.822a1.889,1.889,0,0,1-.339,1.257,1.147,1.147,0,0,1-.909.387,2.928,2.928,0,0,1-.378-0.031,1.824,1.824,0,0,1-.352-0.075l-0.123,1.362a3.962,3.962,0,0,0,.479.119,2.873,2.873,0,0,0,.5.04,2.759,2.759,0,0,0,2.1-.8,3.158,3.158,0,0,0,.756-2.263V6.53h-1.731Zm1.678-4.2h-1.731V4.061h1.731V2.329Zm8.868,13.711h1.556V6.53h-1.731v6.855a2.339,2.339,0,0,1-.91,1.059,2.847,2.847,0,0,1-1.525.373,1.664,1.664,0,0,1-1.4-.571,3.538,3.538,0,0,1-.449-2.092V6.53h-1.731v5.607a4.612,4.612,0,0,0,.87,3.094,3.055,3.055,0,0,0,2.426.993,3.152,3.152,0,0,0,1.626-.413,3.219,3.219,0,0,0,1.151-1.178Zm4.079-9.51v9.51h1.731V8.982a2.333,2.333,0,0,1,.883-0.9,2.685,2.685,0,0,1,1.358-.321,1.989,1.989,0,0,1,1.516.527,2.573,2.573,0,0,1,.5,1.784V16.04h1.731v-6a3.957,3.957,0,0,0-.843-2.782,3.106,3.106,0,0,0-2.382-.9,3.18,3.18,0,0,0-1.631.417,3.452,3.452,0,0,0-1.19,1.173L255.063,6.53h-1.546Zm12.142,7.356a4.714,4.714,0,0,1-.576-2.417V11.1a4.634,4.634,0,0,1,.584-2.395,2,2,0,0,1,1.859-.989,1.866,1.866,0,0,1,1.429.611,2.1,2.1,0,0,1,.566,1.481H271.1l0.017-.053a3.119,3.119,0,0,0-.98-2.417,3.586,3.586,0,0,0-2.606-.984,3.732,3.732,0,0,0-3.089,1.367,5.238,5.238,0,0,0-1.094,3.379V11.47a5.256,5.256,0,0,0,1.09,3.393,4.03,4.03,0,0,0,5.625.409,2.73,2.73,0,0,0,1.054-2.184l-0.026-.053h-1.565a1.681,1.681,0,0,1-.6,1.305,2.038,2.038,0,0,1-1.4.532A2,2,0,0,1,265.659,13.887Zm8.187-9.65V6.53h-1.512V7.813h1.512v5.774a2.768,2.768,0,0,0,.624,2,2.24,2.24,0,0,0,1.678.637,2.894,2.894,0,0,0,.748-0.1,1.536,1.536,0,0,0,.571-0.259l-0.238-1.187a2.453,2.453,0,0,1-.307.084,1.61,1.61,0,0,1-.334.04,1,1,0,0,1-.734-0.272,1.291,1.291,0,0,1-.277-0.941V7.813h1.8V6.53h-1.8V4.236h-1.731Zm7.259,2.294h-1.731v9.51h1.731V6.53Zm0-4.2h-1.731V4.1h1.731V2.329Zm2.259,9.062a5.2,5.2,0,0,0,1.147,3.476,4.253,4.253,0,0,0,6.227,0,5.208,5.208,0,0,0,1.143-3.48V11.2a5.217,5.217,0,0,0-1.147-3.48,3.87,3.87,0,0,0-3.125-1.362,3.831,3.831,0,0,0-3.1,1.367,5.234,5.234,0,0,0-1.143,3.476v0.193ZM285.1,11.2a4.519,4.519,0,0,1,.637-2.487,2.088,2.088,0,0,1,1.876-.993,2.117,2.117,0,0,1,1.894.993,4.471,4.471,0,0,1,.646,2.487v0.193a4.493,4.493,0,0,1-.641,2.5,2.3,2.3,0,0,1-3.775,0,4.509,4.509,0,0,1-.637-2.5V11.2ZM294,6.53v9.51h1.731V8.982a2.336,2.336,0,0,1,.884-0.9,2.683,2.683,0,0,1,1.358-.321,1.99,1.99,0,0,1,1.516.527,2.573,2.573,0,0,1,.5,1.784V16.04h1.732v-6a3.953,3.953,0,0,0-.844-2.782,3.1,3.1,0,0,0-2.382-.9,3.177,3.177,0,0,0-1.63.417,3.447,3.447,0,0,0-1.191,1.173L295.546,6.53H294Zm12.12,7.734h-1.731V16.04h1.731V14.265Zm4.839-.378a4.714,4.714,0,0,1-.576-2.417V11.1a4.634,4.634,0,0,1,.584-2.395,2,2,0,0,1,1.859-.989,1.866,1.866,0,0,1,1.428.611,2.1,2.1,0,0,1,.567,1.481h1.574l0.017-.053a3.122,3.122,0,0,0-.98-2.417,3.588,3.588,0,0,0-2.606-.984,3.73,3.73,0,0,0-3.089,1.367,5.233,5.233,0,0,0-1.094,3.379V11.47a5.261,5.261,0,0,0,1.089,3.393,4.03,4.03,0,0,0,5.625.409,2.731,2.731,0,0,0,1.055-2.184l-0.026-.053H314.82a1.681,1.681,0,0,1-.6,1.305,2.038,2.038,0,0,1-1.4.532A2,2,0,0,1,310.958,13.887Zm7.1-2.5a5.2,5.2,0,0,0,1.147,3.476,4.254,4.254,0,0,0,6.228,0,5.213,5.213,0,0,0,1.142-3.48V11.2a5.217,5.217,0,0,0-1.147-3.48,4.234,4.234,0,0,0-6.227,0,5.234,5.234,0,0,0-1.143,3.476v0.193ZM319.8,11.2a4.519,4.519,0,0,1,.637-2.487,2.089,2.089,0,0,1,1.877-.993,2.118,2.118,0,0,1,1.894.993,4.479,4.479,0,0,1,.646,2.487v0.193a4.485,4.485,0,0,1-.642,2.5,2.3,2.3,0,0,1-3.775,0,4.509,4.509,0,0,1-.637-2.5V11.2Zm8.9-4.667v9.51h1.732V9a2.1,2.1,0,0,1,.782-0.914,2.379,2.379,0,0,1,1.3-.325,1.723,1.723,0,0,1,1.428.62,3.119,3.119,0,0,1,.5,1.956v5.7h1.74V9.932a2.671,2.671,0,0,1,.646-1.556,1.835,1.835,0,0,1,1.437-.615,1.762,1.762,0,0,1,1.441.584,3.163,3.163,0,0,1,.484,1.991v5.7h1.731V10.354a4.555,4.555,0,0,0-.844-3,2.847,2.847,0,0,0-2.294-1,3.115,3.115,0,0,0-1.718.47,3.563,3.563,0,0,0-1.191,1.288,2.657,2.657,0,0,0-1.024-1.318,2.941,2.941,0,0,0-1.63-.439,3.555,3.555,0,0,0-1.666.374,3.239,3.239,0,0,0-1.182,1.05L330.245,6.53H328.7Z"/>
</svg>
